<svg height="512pt" viewBox="0 -21 512 512" width="512pt" xmlns="http://www.w3.org/2000/svg"><path d="m497 470h-482c-8.285156 0-15-6.714844-15-15v-440c0-8.285156 6.714844-15 15-15h482c8.285156 0 15 6.714844 15 15v440c0 8.285156-6.714844 15-15 15zm0 0" fill="#e2f1ff"/><path d="m497 0h-241v470h241c8.285156 0 15-6.714844 15-15v-440c0-8.285156-6.714844-15-15-15zm0 0" fill="#c5e3ff"/><path d="m30 440h452v-410h-452zm0 0" fill="#525967"/><path d="m256 30h226v410h-226zm0 0" fill="#3b4851"/><path d="m210 209c-2.828125 0-5.644531-.800781-8.101562-2.375-4.296876-2.761719-6.898438-7.515625-6.898438-12.625v-110c0-5.109375 2.601562-9.863281 6.898438-12.625 4.300781-2.757812 9.707031-3.140625 14.351562-1.011719l120 55c5.332031 2.445313 8.75 7.773438 8.75 13.636719s-3.417969 11.191406-8.75 13.636719l-120 55c-1.992188.914062-4.125 1.363281-6.25 1.363281zm0 0" fill="#fff48a"/><path d="m336.25 125.363281-80.25-36.78125v100.835938l80.25-36.78125c5.332031-2.445313 8.75-7.773438 8.75-13.636719s-3.417969-11.191406-8.75-13.636719zm0 0" fill="#ffe54e"/><path d="m136 240h-60c-8.285156 0-15 6.714844-15 15v120c0 8.285156 6.714844 15 15 15s15-6.714844 15-15v-45h45c8.285156 0 15-6.714844 15-15v-60c0-8.285156-6.714844-15-15-15zm-15 60h-30v-30h30zm0 0" fill="#e2f1ff"/><path d="m226 390h-40c-8.285156 0-15-6.714844-15-15v-120c0-8.285156 6.714844-15 15-15s15 6.714844 15 15v105h25c8.285156 0 15 6.714844 15 15s-6.714844 15-15 15zm0 0" fill="#e2f1ff"/><g fill="#c5e3ff"><path d="m331 240h-60c-8.285156 0-15 6.714844-15 15v120c0 8.285156 6.714844 15 15 15s15-6.714844 15-15v-45h30v45c0 8.285156 6.714844 15 15 15s15-6.714844 15-15v-120c0-8.285156-6.714844-15-15-15zm-45 60v-30h30v30zm0 0"/><path d="m441 240c-8.285156 0-15 6.714844-15 15v45h-30v-45c0-8.285156-6.714844-15-15-15s-15 6.714844-15 15v60c0 8.285156 6.714844 15 15 15h15v45c0 8.285156 6.714844 15 15 15s15-6.714844 15-15v-45h15c8.285156 0 15-6.714844 15-15v-60c0-8.285156-6.714844-15-15-15zm0 0"/></g></svg>